<mxfile host="app.diagrams.net" agent="Mozilla/5.0 (Windows NT 10.0; Win64; x64) AppleWebKit/537.36 (KHTML, like Gecko) Chrome/133.0.0.0 Safari/537.36" version="26.0.16" pages="2">
  <diagram id="web-crawler-architecture" name="Web Crawler Architecture">
    <mxGraphModel dx="1434" dy="746" grid="1" gridSize="10" guides="1" tooltips="1" connect="1" arrows="1" fold="1" page="1" pageScale="1" pageWidth="850" pageHeight="1100" math="0" shadow="0">
      <root>
        <mxCell id="0" />
        <mxCell id="1" parent="0" />
        <mxCell id="2" value="Docker Container" style="swimlane;fontStyle=0;childLayout=stackLayout;horizontal=1;startSize=30;horizontalStack=0;resizeParent=1;resizeParentMax=0;resizeLast=0;collapsible=1;marginBottom=0;fillColor=#dae8fc;strokeColor=#6c8ebf;" parent="1" vertex="1">
          <mxGeometry x="160" y="80" width="520" height="600" as="geometry" />
        </mxCell>
        <mxCell id="3" value="Node.js Server (Express)" style="swimlane;fontStyle=0;childLayout=stackLayout;horizontal=1;startSize=30;horizontalStack=0;resizeParent=1;resizeParentMax=0;resizeLast=0;collapsible=1;marginBottom=0;fillColor=#d5e8d4;strokeColor=#82b366;" parent="2" vertex="1">
          <mxGeometry x="20" y="40" width="480" height="540" as="geometry" />
        </mxCell>
        <mxCell id="4" value="Endpoints" style="swimlane;fontStyle=0;childLayout=stackLayout;horizontal=1;startSize=30;horizontalStack=0;resizeParent=1;resizeParentMax=0;resizeLast=0;collapsible=1;marginBottom=0;fillColor=#fff2cc;strokeColor=#d6b656;" parent="3" vertex="1">
          <mxGeometry x="20" y="40" width="200" height="150" as="geometry" />
        </mxCell>
        <mxCell id="5" value="POST /screenshot&#xa;GET /screenshot/:domain&#xa;GET /domains&#xa;GET /download-all&#xa;GET /screenshots/*" style="text;strokeColor=none;fillColor=none;align=left;verticalAlign=middle;spacingLeft=4;spacingRight=4;overflow=hidden;points=[[0,0.5],[1,0.5]];portConstraint=eastwest;rotatable=0;" parent="4" vertex="1">
          <mxGeometry y="30" width="200" height="120" as="geometry" />
        </mxCell>
        <mxCell id="6" value="Core Components" style="swimlane;fontStyle=0;childLayout=stackLayout;horizontal=1;startSize=30;horizontalStack=0;resizeParent=1;resizeParentMax=0;resizeLast=0;collapsible=1;marginBottom=0;fillColor=#fff2cc;strokeColor=#d6b656;" parent="3" vertex="1">
          <mxGeometry x="260" y="40" width="200" height="150" as="geometry" />
        </mxCell>
        <mxCell id="7" value="Puppeteer Browser&#xa;Screenshot Manager&#xa;File System Handler&#xa;ZIP Archive Creator&#xa;Cleanup Service" style="text;strokeColor=none;fillColor=none;align=left;verticalAlign=middle;spacingLeft=4;spacingRight=4;overflow=hidden;points=[[0,0.5],[1,0.5]];portConstraint=eastwest;rotatable=0;" parent="6" vertex="1">
          <mxGeometry y="30" width="200" height="120" as="geometry" />
        </mxCell>
        <mxCell id="8" value="File System" style="swimlane;fontStyle=0;childLayout=stackLayout;horizontal=1;startSize=30;horizontalStack=0;resizeParent=1;resizeParentMax=0;resizeLast=0;collapsible=1;marginBottom=0;fillColor=#fff2cc;strokeColor=#d6b656;" parent="3" vertex="1">
          <mxGeometry x="20" y="220" width="440" height="120" as="geometry" />
        </mxCell>
        <mxCell id="9" value="/screenshots/&#xa;  ├── screenshot-domain1-homepage.png&#xa;  ├── screenshot-domain1-section.png&#xa;  └── domain1.zip" style="text;strokeColor=none;fillColor=none;align=left;verticalAlign=middle;spacingLeft=4;spacingRight=4;overflow=hidden;points=[[0,0.5],[1,0.5]];portConstraint=eastwest;rotatable=0;" parent="8" vertex="1">
          <mxGeometry y="30" width="440" height="90" as="geometry" />
        </mxCell>
        <mxCell id="10" value="Utility Functions" style="swimlane;fontStyle=0;childLayout=stackLayout;horizontal=1;startSize=30;horizontalStack=0;resizeParent=1;resizeParentMax=0;resizeLast=0;collapsible=1;marginBottom=0;fillColor=#fff2cc;strokeColor=#d6b656;" parent="3" vertex="1">
          <mxGeometry x="20" y="360" width="440" height="160" as="geometry" />
        </mxCell>
        <mxCell id="11" value="sanitizeFilename(url)&#xa;generateUniqueFilename(url)&#xa;parseFilename(filename)&#xa;getDirSize(dirPath)&#xa;cleanupOldScreenshots()&#xa;setHeaders(res, path)" style="text;strokeColor=none;fillColor=none;align=left;verticalAlign=middle;spacingLeft=4;spacingRight=4;overflow=hidden;points=[[0,0.5],[1,0.5]];portConstraint=eastwest;rotatable=0;" parent="10" vertex="1">
          <mxGeometry y="30" width="440" height="130" as="geometry" />
        </mxCell>
        <mxCell id="12" value="External Services" style="swimlane;fontStyle=0;childLayout=stackLayout;horizontal=1;startSize=30;horizontalStack=0;resizeParent=1;resizeParentMax=0;resizeLast=0;collapsible=1;marginBottom=0;fillColor=#f8cecc;strokeColor=#b85450;" parent="1" vertex="1">
          <mxGeometry x="720" y="80" width="200" height="90" as="geometry" />
        </mxCell>
        <mxCell id="13" value="Google Translate API&#xa;Target Websites" style="text;strokeColor=none;fillColor=none;align=left;verticalAlign=middle;spacingLeft=4;spacingRight=4;overflow=hidden;points=[[0,0.5],[1,0.5]];portConstraint=eastwest;rotatable=0;" parent="12" vertex="1">
          <mxGeometry y="30" width="200" height="60" as="geometry" />
        </mxCell>
        <mxCell id="14" value="" style="endArrow=classic;html=1;exitX=1;exitY=0.5;exitDx=0;exitDy=0;entryX=0;entryY=0.5;entryDx=0;entryDy=0;" parent="1" source="5" target="7" edge="1">
          <mxGeometry width="50" height="50" relative="1" as="geometry" />
        </mxCell>
        <mxCell id="15" value="" style="endArrow=classic;html=1;exitX=1;exitY=0.5;exitDx=0;exitDy=0;entryX=0;entryY=0.5;entryDx=0;entryDy=0;" parent="1" source="7" target="13" edge="1">
          <mxGeometry width="50" height="50" relative="1" as="geometry" />
        </mxCell>
        <mxCell id="16" value="" style="endArrow=classic;html=1;exitX=0.5;exitY=1;exitDx=0;exitDy=0;entryX=0.5;entryY=0;entryDx=0;entryDy=0;" parent="1" source="7" target="8" edge="1">
          <mxGeometry width="50" height="50" relative="1" as="geometry" />
        </mxCell>
        <mxCell id="17" value="" style="endArrow=classic;html=1;exitX=0.5;exitY=1;exitDx=0;exitDy=0;entryX=0.5;entryY=0;entryDx=0;entryDy=0;" parent="1" source="9" target="10" edge="1">
          <mxGeometry width="50" height="50" relative="1" as="geometry" />
        </mxCell>
      </root>
    </mxGraphModel>
  </diagram>
  <diagram id="SzCX9oPaXLVoNiFKaXso" name="Page-2">
    <mxGraphModel dx="1434" dy="746" grid="1" gridSize="10" guides="1" tooltips="1" connect="1" arrows="1" fold="1" page="1" pageScale="1" pageWidth="850" pageHeight="1100" math="0" shadow="0">
      <root>
        <mxCell id="0" />
        <mxCell id="1" parent="0" />
        <mxCell id="yoljh1iAwtfz3xh1OFv0-22" value="Frontend (Vue.js)" style="swimlane;fontStyle=0;childLayout=stackLayout;horizontal=1;startSize=30;horizontalStack=0;resizeParent=1;resizeParentMax=0;resizeLast=0;collapsible=1;marginBottom=0;fillColor=#dae8fc;strokeColor=#6c8ebf;" vertex="1" parent="1">
          <mxGeometry x="40" y="40" width="280" height="350" as="geometry" />
        </mxCell>
        <mxCell id="yoljh1iAwtfz3xh1OFv0-23" value="Components" style="swimlane;fontStyle=0;childLayout=stackLayout;horizontal=1;startSize=30;horizontalStack=0;resizeParent=1;resizeParentMax=0;resizeLast=0;collapsible=1;marginBottom=0;fillColor=#fff2cc;strokeColor=#d6b656;" vertex="1" parent="yoljh1iAwtfz3xh1OFv0-22">
          <mxGeometry y="30" width="280" height="160" as="geometry" />
        </mxCell>
        <mxCell id="yoljh1iAwtfz3xh1OFv0-24" value="exports/index.vue&#xa;- Screenshot Display&#xa;- Domain Management&#xa;- Download Features&#xa;HeaderSearch/index.vue&#xa;layout/components/*&#xa;Navbar.vue&#xa;TagsView/index.vue" style="text;strokeColor=none;fillColor=none;align=left;verticalAlign=middle;spacingLeft=4;spacingRight=4;overflow=hidden;points=[[0,0.5],[1,0.5]];portConstraint=eastwest;rotatable=0;" vertex="1" parent="yoljh1iAwtfz3xh1OFv0-23">
          <mxGeometry y="30" width="280" height="130" as="geometry" />
        </mxCell>
        <mxCell id="yoljh1iAwtfz3xh1OFv0-25" value="Routes" style="swimlane;fontStyle=0;childLayout=stackLayout;horizontal=1;startSize=30;horizontalStack=0;resizeParent=1;resizeParentMax=0;resizeLast=0;collapsible=1;marginBottom=0;fillColor=#fff2cc;strokeColor=#d6b656;" vertex="1" parent="yoljh1iAwtfz3xh1OFv0-22">
          <mxGeometry y="190" width="280" height="160" as="geometry" />
        </mxCell>
        <mxCell id="yoljh1iAwtfz3xh1OFv0-26" value="/login&#xa;/dashboard&#xa;/screenshots&#xa;/exports&#xa;/benchmarks&#xa;/profile&#xa;/settings&#xa;/404" style="text;strokeColor=none;fillColor=none;align=left;verticalAlign=middle;spacingLeft=4;spacingRight=4;overflow=hidden;points=[[0,0.5],[1,0.5]];portConstraint=eastwest;rotatable=0;" vertex="1" parent="yoljh1iAwtfz3xh1OFv0-25">
          <mxGeometry y="30" width="280" height="130" as="geometry" />
        </mxCell>
        <mxCell id="yoljh1iAwtfz3xh1OFv0-27" value="Screenshot Service (Node.js)" style="swimlane;fontStyle=0;childLayout=stackLayout;horizontal=1;startSize=30;horizontalStack=0;resizeParent=1;resizeParentMax=0;resizeLast=0;collapsible=1;marginBottom=0;fillColor=#d5e8d4;strokeColor=#82b366;" vertex="1" parent="1">
          <mxGeometry x="360" y="40" width="280" height="350" as="geometry" />
        </mxCell>
        <mxCell id="yoljh1iAwtfz3xh1OFv0-28" value="API Endpoints" style="swimlane;fontStyle=0;childLayout=stackLayout;horizontal=1;startSize=30;horizontalStack=0;resizeParent=1;resizeParentMax=0;resizeLast=0;collapsible=1;marginBottom=0;fillColor=#fff2cc;strokeColor=#d6b656;" vertex="1" parent="yoljh1iAwtfz3xh1OFv0-27">
          <mxGeometry y="30" width="280" height="160" as="geometry" />
        </mxCell>
        <mxCell id="yoljh1iAwtfz3xh1OFv0-29" value="POST /screenshot&#xa;GET /screenshot/:domain&#xa;GET /domains&#xa;GET /download-all&#xa;GET /screenshots/*&#xa;GET /screenshots/list&#xa;POST /translate&#xa;GET /cleanup" style="text;strokeColor=none;fillColor=none;align=left;verticalAlign=middle;spacingLeft=4;spacingRight=4;overflow=hidden;points=[[0,0.5],[1,0.5]];portConstraint=eastwest;rotatable=0;" vertex="1" parent="yoljh1iAwtfz3xh1OFv0-28">
          <mxGeometry y="30" width="280" height="130" as="geometry" />
        </mxCell>
        <mxCell id="yoljh1iAwtfz3xh1OFv0-30" value="Core Features" style="swimlane;fontStyle=0;childLayout=stackLayout;horizontal=1;startSize=30;horizontalStack=0;resizeParent=1;resizeParentMax=0;resizeLast=0;collapsible=1;marginBottom=0;fillColor=#fff2cc;strokeColor=#d6b656;" vertex="1" parent="yoljh1iAwtfz3xh1OFv0-27">
          <mxGeometry y="190" width="280" height="160" as="geometry" />
        </mxCell>
        <mxCell id="yoljh1iAwtfz3xh1OFv0-31" value="- Puppeteer Browser Control&#xa;- Screenshot Capture&#xa;- File System Management&#xa;- ZIP Archive Creation&#xa;- Translation Service&#xa;- Auto Cleanup&#xa;- Error Handling&#xa;- Domain Organization" style="text;strokeColor=none;fillColor=none;align=left;verticalAlign=middle;spacingLeft=4;spacingRight=4;overflow=hidden;points=[[0,0.5],[1,0.5]];portConstraint=eastwest;rotatable=0;" vertex="1" parent="yoljh1iAwtfz3xh1OFv0-30">
          <mxGeometry y="30" width="280" height="130" as="geometry" />
        </mxCell>
        <mxCell id="yoljh1iAwtfz3xh1OFv0-32" value="Django Backend" style="swimlane;fontStyle=0;childLayout=stackLayout;horizontal=1;startSize=30;horizontalStack=0;resizeParent=1;resizeParentMax=0;resizeLast=0;collapsible=1;marginBottom=0;fillColor=#f8cecc;strokeColor=#b85450;" vertex="1" parent="1">
          <mxGeometry x="680" y="40" width="280" height="350" as="geometry" />
        </mxCell>
        <mxCell id="yoljh1iAwtfz3xh1OFv0-33" value="Models" style="swimlane;fontStyle=0;childLayout=stackLayout;horizontal=1;startSize=30;horizontalStack=0;resizeParent=1;resizeParentMax=0;resizeLast=0;collapsible=1;marginBottom=0;fillColor=#fff2cc;strokeColor=#d6b656;" vertex="1" parent="yoljh1iAwtfz3xh1OFv0-32">
          <mxGeometry y="30" width="280" height="160" as="geometry" />
        </mxCell>
        <mxCell id="yoljh1iAwtfz3xh1OFv0-34" value="Website&#xa;- url, last_crawled, status&#xa;Screenshot&#xa;- website (FK), image, page_url&#xa;CustomUser&#xa;- username, email, permissions&#xa;Benchmark&#xa;- user (FK), name, year, client" style="text;strokeColor=none;fillColor=none;align=left;verticalAlign=middle;spacingLeft=4;spacingRight=4;overflow=hidden;points=[[0,0.5],[1,0.5]];portConstraint=eastwest;rotatable=0;" vertex="1" parent="yoljh1iAwtfz3xh1OFv0-33">
          <mxGeometry y="30" width="280" height="130" as="geometry" />
        </mxCell>
        <mxCell id="yoljh1iAwtfz3xh1OFv0-35" value="Views &amp; API Endpoints" style="swimlane;fontStyle=0;childLayout=stackLayout;horizontal=1;startSize=30;horizontalStack=0;resizeParent=1;resizeParentMax=0;resizeLast=0;collapsible=1;marginBottom=0;fillColor=#fff2cc;strokeColor=#d6b656;" vertex="1" parent="yoljh1iAwtfz3xh1OFv0-32">
          <mxGeometry y="190" width="280" height="160" as="geometry" />
        </mxCell>
        <mxCell id="yoljh1iAwtfz3xh1OFv0-36" value="/api/auth/token/&#xa;/api/auth/me/&#xa;/api/benchmarks/&#xa;/api/items/&#xa;/api/users/&#xa;/api/websites/&#xa;/api/screenshots/&#xa;/api/crawler/" style="text;strokeColor=none;fillColor=none;align=left;verticalAlign=middle;spacingLeft=4;spacingRight=4;overflow=hidden;points=[[0,0.5],[1,0.5]];portConstraint=eastwest;rotatable=0;" vertex="1" parent="yoljh1iAwtfz3xh1OFv0-35">
          <mxGeometry y="30" width="280" height="130" as="geometry" />
        </mxCell>
        <mxCell id="yoljh1iAwtfz3xh1OFv0-37" value="Database (SQLite3)" style="swimlane;fontStyle=0;childLayout=stackLayout;horizontal=1;startSize=30;horizontalStack=0;resizeParent=1;resizeParentMax=0;resizeLast=0;collapsible=1;marginBottom=0;fillColor=#e1d5e7;strokeColor=#9673a6;" vertex="1" parent="1">
          <mxGeometry x="680" y="480" width="280" height="160" as="geometry" />
        </mxCell>
        <mxCell id="yoljh1iAwtfz3xh1OFv0-38" value="Tables:&#xa;- auth_user&#xa;- website&#xa;- screenshot&#xa;- benchmark&#xa;- benchmark_row&#xa;- item&#xa;- django_migrations" style="text;strokeColor=none;fillColor=none;align=left;verticalAlign=middle;spacingLeft=4;spacingRight=4;overflow=hidden;points=[[0,0.5],[1,0.5]];portConstraint=eastwest;rotatable=0;" vertex="1" parent="yoljh1iAwtfz3xh1OFv0-37">
          <mxGeometry y="30" width="280" height="130" as="geometry" />
        </mxCell>
        <mxCell id="yoljh1iAwtfz3xh1OFv0-39" value="File System" style="swimlane;fontStyle=0;childLayout=stackLayout;horizontal=1;startSize=30;horizontalStack=0;resizeParent=1;resizeParentMax=0;resizeLast=0;collapsible=1;marginBottom=0;fillColor=#e1d5e7;strokeColor=#9673a6;" vertex="1" parent="1">
          <mxGeometry x="360" y="480" width="280" height="160" as="geometry" />
        </mxCell>
        <mxCell id="yoljh1iAwtfz3xh1OFv0-40" value="/screenshots/&#xa;  ├── {domain}/&#xa;  │   ├── homepage.png&#xa;  │   └── {section}/page.png&#xa;/media/&#xa;  └── screenshots/&#xa;/static/&#xa;/staticfiles/" style="text;strokeColor=none;fillColor=none;align=left;verticalAlign=middle;spacingLeft=4;spacingRight=4;overflow=hidden;points=[[0,0.5],[1,0.5]];portConstraint=eastwest;rotatable=0;" vertex="1" parent="yoljh1iAwtfz3xh1OFv0-39">
          <mxGeometry y="30" width="280" height="130" as="geometry" />
        </mxCell>
        <mxCell id="yoljh1iAwtfz3xh1OFv0-41" value="HTTP/REST" style="endArrow=classic;startArrow=classic;html=1;rounded=0;exitX=1;exitY=0.5;exitDx=0;exitDy=0;entryX=0;entryY=0.5;entryDx=0;entryDy=0;" edge="1" parent="1" source="yoljh1iAwtfz3xh1OFv0-22" target="yoljh1iAwtfz3xh1OFv0-27">
          <mxGeometry width="50" height="50" relative="1" as="geometry" />
        </mxCell>
        <mxCell id="yoljh1iAwtfz3xh1OFv0-42" value="API Integration" style="endArrow=classic;startArrow=classic;html=1;rounded=0;exitX=1;exitY=0.5;exitDx=0;exitDy=0;entryX=0;entryY=0.5;entryDx=0;entryDy=0;" edge="1" parent="1" source="yoljh1iAwtfz3xh1OFv0-27" target="yoljh1iAwtfz3xh1OFv0-32">
          <mxGeometry width="50" height="50" relative="1" as="geometry" />
        </mxCell>
        <mxCell id="yoljh1iAwtfz3xh1OFv0-43" value="ORM" style="endArrow=classic;startArrow=classic;html=1;rounded=0;exitX=0.5;exitY=1;exitDx=0;exitDy=0;entryX=0.5;entryY=0;entryDx=0;entryDy=0;" edge="1" parent="1" source="yoljh1iAwtfz3xh1OFv0-32" target="yoljh1iAwtfz3xh1OFv0-37">
          <mxGeometry width="50" height="50" relative="1" as="geometry" />
        </mxCell>
        <mxCell id="yoljh1iAwtfz3xh1OFv0-44" value="File Storage" style="endArrow=classic;html=1;rounded=0;exitX=0.5;exitY=1;exitDx=0;exitDy=0;entryX=0.5;entryY=0;entryDx=0;entryDy=0;" edge="1" parent="1" source="yoljh1iAwtfz3xh1OFv0-27" target="yoljh1iAwtfz3xh1OFv0-39">
          <mxGeometry width="50" height="50" relative="1" as="geometry" />
        </mxCell>
        <mxCell id="yoljh1iAwtfz3xh1OFv0-45" value="Media Storage" style="endArrow=classic;html=1;rounded=0;exitX=0;exitY=0.75;exitDx=0;exitDy=0;entryX=1;entryY=0.25;entryDx=0;entryDy=0;" edge="1" parent="1" source="yoljh1iAwtfz3xh1OFv0-32" target="yoljh1iAwtfz3xh1OFv0-39">
          <mxGeometry width="50" height="50" relative="1" as="geometry" />
        </mxCell>
      </root>
    </mxGraphModel>
  </diagram>
</mxfile>
